# xmcd
#
# Track frame offsets:
#	150
#	17240
#	33127
#	51710
#	69497
#	89160
#	113145
#	134250
#	156252
#	180535
#
# Disc length: 2721 seconds
#
# Revision: 1
# Processed by: cddbd v1.4PL0 Copyright (c) Steve Scherf et al.
# Submitted via: audiograbber 1.80.04
#
DISCID=8b0a9f0a
DTITLE=Tyley Ross - Tyley Ross
DYEAR=1999
DGENRE=Ballad
TTITLE0=Cutting Me Off
TTITLE1=I Tried
TTITLE2=You Love Me Too
TTITLE3=The Way She Drives
TTITLE4=Souvenir (featuring Ma-Anne Dionisio)
TTITLE5=Chipping At The Wall
TTITLE6=The Boxer
TTITLE7=Fly
TTITLE8=Language
TTITLE9=Hollow
EXTD=
EXTT0=
EXTT1=
EXTT2=
EXTT3=
EXTT4=
EXTT5=
EXTT6=
EXTT7=
EXTT8=
EXTT9=
PLAYORDER=
